<svg width="202" height="159" viewBox="0 0 202 159" fill="none" xmlns="http://www.w3.org/2000/svg">
<g clip-path="url(#clip0_711_4949)">
<path d="M98.5 67.332H89.8V76.6921H98.5V67.332Z" fill="url(#paint0_linear_711_4949)"/>
<path d="M112.2 67.332H103.5V76.7928H112.2V67.332Z" fill="url(#paint1_linear_711_4949)"/>
<path d="M98.5001 80.7188H89.7001V89.9782H98.5001V80.7188Z" fill="url(#paint2_linear_711_4949)"/>
<path d="M112.2 80.6172H103.5V89.9773H112.2V80.6172Z" fill="url(#paint3_linear_711_4949)"/>
<path d="M155.4 87.3589C153.4 84.0376 151.1 80.8169 149.3 77.3949C146.3 71.4568 144 65.2167 146 58.4734C147.2 54.5482 149.5 50.9249 151 46.9997C152.7 42.7726 154.3 38.4448 155.6 34.117C156.1 32.406 155.8 30.2924 153.8 29.4873C151.9 28.7827 150.3 29.8898 149.1 31.2989C148.7 31.8021 148.3 32.3054 148 32.8086C145.7 36.7338 143.4 40.7597 141.2 44.7855C137.2 52.2333 129.2 53.9443 122.6 48.5094C120.6 46.8991 118.7 45.2887 116.9 43.5777C109.8 36.9351 102.6 30.1918 97.4 21.6368C96.2 19.7246 95.5 17.5103 95 15.2961C94.6 13.3838 95.6 11.6729 97.6 11.069C99.6 10.3645 101.4 10.8677 102.6 12.5787C103.2 13.4845 103.5 14.491 104.1 15.7994C105.5 13.1825 105.7 10.6664 104.3 8.04959C102.3 4.32567 97.2 2.0108 93 2.81598C88.6 3.72179 85.3 7.44571 84.8 12.1761C84.4 16.4032 85.3 20.3284 87 24.153C90.3 31.2989 95.4 37.1364 100.4 42.9739C107.3 51.2269 114.8 59.0773 122.1 67.0284C125.7 70.9536 127.4 75.4826 127.1 80.7162C126.9 83.2324 125.9 85.7486 125.1 88.2647C123.6 93.0957 121.8 97.8261 120.4 102.657C119.6 105.274 120.4 107.589 122.2 108.495C124 109.501 126.6 108.897 128.4 106.884C129.7 105.375 130.7 103.462 131.9 101.852C134.3 98.6313 136.7 95.4106 139.3 92.3912C140.1 91.4854 141.7 91.2841 143.1 90.9822C146.1 90.3783 148.5 91.888 151.1 93.0957C152.1 93.599 154.1 93.6996 154.7 92.9951C155.6 92.0893 155.8 90.3783 156.1 88.9693C156.1 88.5667 155.7 87.8621 155.4 87.3589Z" fill="url(#paint4_linear_711_4949)"/>
<path d="M130 42.4699C135.1 42.4699 139.3 38.3434 139.4 33.2104C139.4 28.2787 135.2 23.9509 130.2 23.9509C125.3 23.8503 121 28.1781 120.9 33.1098C120.9 38.0414 125.1 42.4699 130 42.4699Z" fill="url(#paint5_linear_711_4949)"/>
<path d="M97.3001 0.30107C106.9 -1.91315 119.2 8.25213 114.3 20.3297C112.3 25.2614 109.5 30.0924 106.2 34.3195C98.1001 45.0887 89.2001 55.1533 81.0001 65.8219C74.7001 73.9742 75.0001 82.7304 81.0001 90.9834C82.6001 93.1977 83.6001 95.5125 83.4001 98.23C83.3001 100.645 82.0001 101.753 79.7001 101.048C78.2001 100.545 76.7001 99.7397 75.3001 98.9345C74.2001 98.3306 73.3001 97.4248 72.2001 96.8209C68.8001 94.6067 66.5001 94.808 63.6001 97.7267C62.1001 99.1358 60.8001 100.746 59.4001 102.256C58.8001 102.86 58.1001 103.464 57.4001 103.866C54.5001 105.577 52.0001 104.369 52.2001 101.048C52.3001 98.6326 53.2001 96.1164 53.9001 93.8015C54.4001 91.9899 55.1001 90.2789 55.7001 88.4673C57.4001 83.3343 55.2001 79.1072 52.4001 75.0813C50.9001 72.8671 49.3001 70.6529 48.3001 68.2374C47.8001 66.8283 48.0001 64.6141 48.8001 63.4063C49.9001 61.6953 51.9001 62.6012 53.5001 63.205C55.3001 63.9096 57.1001 64.8154 58.9001 65.6206C62.5001 67.3315 65.6001 66.7277 68.4001 63.9096C72.4001 59.7831 76.3001 55.5559 80.2001 51.3288C88.6001 42.3712 96.0001 32.5079 103 22.4433C104.7 20.0278 106 17.2097 106.9 14.3916C109 8.25213 105.6 2.41464 99.3001 0.703655C98.5001 0.603009 97.9001 0.401716 97.3001 0.30107Z" fill="url(#paint6_linear_711_4949)"/>
<path d="M59.3 58.4735C54.4 58.4735 50.4 54.347 50.4 49.4153C50.5 44.5843 54.5 40.6591 59.4 40.7597C64.3 40.7597 68.2 44.7856 68.1 49.7172C68.1 54.5483 64.2 58.4735 59.3 58.4735Z" fill="url(#paint7_linear_711_4949)"/>
<path d="M56.1 35.0232C56.1 33.9161 56 33.0103 56.1 32.1045C56.2 30.2929 57.2 29.7896 58.7 30.7961C59.7 31.5006 60.5 32.5071 61.3 33.4129C61.7 33.9161 61.9 34.4194 62.7 34.52C63.7 34.6207 64 35.5265 64.4 36.4323C58.7 38.4452 53 40.3575 47.3 42.2698C46.8 41.2633 46.8 40.3575 47.5 39.5523C47.7 39.2504 47.8 38.8478 47.8 38.5459C47.7 36.231 48.3 34.1174 49.9 32.5071C51.5 30.7961 53.3 30.8967 54.7 32.809C55.2 33.4129 55.6 34.1174 56.1 35.0232Z" fill="url(#paint8_linear_711_4949)"/>
<path d="M133 18.7209C133.4 17.7145 133.7 16.8087 134.1 16.0035C134.9 14.3931 136 14.2925 137 15.8022C137.6 16.8087 138 18.1171 138.4 19.2242C138.6 19.828 138.6 20.4319 139.3 20.8345C140.2 21.3377 140.1 22.2436 140.1 23.25C134.1 22.7468 128.2 22.2436 122.2 21.841C122.1 20.7339 122.5 19.9287 123.5 19.4255C123.8 19.2242 124.1 18.9222 124.2 18.6203C125 16.5067 126.3 14.7957 128.5 13.7893C130.6 12.8835 132.3 13.6886 132.8 16.0035C132.8 16.8087 132.9 17.7145 133 18.7209Z" fill="url(#paint9_linear_711_4949)"/>
</g>
<path d="M84.1688 149H79.8848V136.204L74.3688 144.576H74.2568L68.7968 136.288V149H64.5688V129.4H69.2168L74.3688 137.688L79.5208 129.4H84.1688V149ZM101.337 149H97.2214V147.376C96.6987 147.955 96.0734 148.421 95.3454 148.776C94.6174 149.112 93.7307 149.28 92.6854 149.28C91.9761 149.28 91.3041 149.187 90.6694 149C90.0534 148.795 89.5121 148.496 89.0454 148.104C88.5787 147.712 88.2054 147.236 87.9254 146.676C87.6641 146.097 87.5334 145.435 87.5334 144.688V144.632C87.5334 143.811 87.6827 143.101 87.9814 142.504C88.2801 141.907 88.6907 141.412 89.2134 141.02C89.7547 140.628 90.3894 140.339 91.1174 140.152C91.8641 139.947 92.6854 139.844 93.5814 139.844C94.3467 139.844 95.0094 139.9 95.5694 140.012C96.1481 140.124 96.7081 140.273 97.2494 140.46V140.208C97.2494 139.312 96.9787 138.631 96.4374 138.164C95.8961 137.697 95.0934 137.464 94.0294 137.464C93.2081 137.464 92.4801 137.539 91.8454 137.688C91.2294 137.819 90.5761 138.015 89.8854 138.276L88.8214 135.028C89.6427 134.673 90.5014 134.384 91.3974 134.16C92.2934 133.936 93.3761 133.824 94.6454 133.824C96.9787 133.824 98.6774 134.393 99.7414 135.532C100.805 136.671 101.337 138.257 101.337 140.292V149ZM97.3054 143.708V142.952C96.9321 142.784 96.5121 142.653 96.0454 142.56C95.5974 142.448 95.1121 142.392 94.5894 142.392C93.6747 142.392 92.9561 142.569 92.4334 142.924C91.9107 143.279 91.6494 143.792 91.6494 144.464V144.52C91.6494 145.099 91.8641 145.547 92.2934 145.864C92.7227 146.181 93.2827 146.34 93.9734 146.34C94.9814 146.34 95.7841 146.097 96.3814 145.612C96.9974 145.127 97.3054 144.492 97.3054 143.708ZM126.532 133.992L121.856 149.112H118.02L115.136 139.9L112.196 149.112H108.388L103.768 133.992H108.08L110.488 143.092L113.316 133.936H116.984L119.84 143.12L122.304 133.992H126.532ZM142.025 149H137.909V147.376C137.386 147.955 136.761 148.421 136.033 148.776C135.305 149.112 134.418 149.28 133.373 149.28C132.664 149.28 131.992 149.187 131.357 149C130.741 148.795 130.2 148.496 129.733 148.104C129.266 147.712 128.893 147.236 128.613 146.676C128.352 146.097 128.221 145.435 128.221 144.688V144.632C128.221 143.811 128.37 143.101 128.669 142.504C128.968 141.907 129.378 141.412 129.901 141.02C130.442 140.628 131.077 140.339 131.805 140.152C132.552 139.947 133.373 139.844 134.269 139.844C135.034 139.844 135.697 139.9 136.257 140.012C136.836 140.124 137.396 140.273 137.937 140.46V140.208C137.937 139.312 137.666 138.631 137.125 138.164C136.584 137.697 135.781 137.464 134.717 137.464C133.896 137.464 133.168 137.539 132.533 137.688C131.917 137.819 131.264 138.015 130.573 138.276L129.509 135.028C130.33 134.673 131.189 134.384 132.085 134.16C132.981 133.936 134.064 133.824 135.333 133.824C137.666 133.824 139.365 134.393 140.429 135.532C141.493 136.671 142.025 138.257 142.025 140.292V149ZM137.993 143.708V142.952C137.62 142.784 137.2 142.653 136.733 142.56C136.285 142.448 135.8 142.392 135.277 142.392C134.362 142.392 133.644 142.569 133.121 142.924C132.598 143.279 132.337 143.792 132.337 144.464V144.52C132.337 145.099 132.552 145.547 132.981 145.864C133.41 146.181 133.97 146.34 134.661 146.34C135.669 146.34 136.472 146.097 137.069 145.612C137.685 145.127 137.993 144.492 137.993 143.708Z" fill="black"/>
<defs>
<linearGradient id="paint0_linear_711_4949" x1="85.4096" y1="81.4274" x2="89.6711" y2="68.9876" gradientUnits="userSpaceOnUse">
<stop offset="0.0135063" stop-color="white"/>
<stop offset="1" stop-color="#01D1D6"/>
</linearGradient>
<linearGradient id="paint1_linear_711_4949" x1="99.1097" y1="81.579" x2="103.453" y2="69.0339" gradientUnits="userSpaceOnUse">
<stop offset="0.0135063" stop-color="white"/>
<stop offset="1" stop-color="#01D1D6"/>
</linearGradient>
<linearGradient id="paint2_linear_711_4949" x1="85.2591" y1="94.6626" x2="89.401" y2="82.3" gradientUnits="userSpaceOnUse">
<stop offset="0.0135063" stop-color="white"/>
<stop offset="1" stop-color="#01D1D6"/>
</linearGradient>
<linearGradient id="paint3_linear_711_4949" x1="99.1097" y1="94.7126" x2="103.371" y2="82.2727" gradientUnits="userSpaceOnUse">
<stop offset="0.0135063" stop-color="white"/>
<stop offset="1" stop-color="#01D1D6"/>
</linearGradient>
<linearGradient id="paint4_linear_711_4949" x1="48.6766" y1="162.758" x2="109.795" y2="33.8588" gradientUnits="userSpaceOnUse">
<stop offset="0.0135063" stop-color="white"/>
<stop offset="1" stop-color="#01D1D6"/>
</linearGradient>
<linearGradient id="paint5_linear_711_4949" x1="111.564" y1="51.8395" x2="119.522" y2="26.8732" gradientUnits="userSpaceOnUse">
<stop offset="0.0135063" stop-color="white"/>
<stop offset="1" stop-color="#01D1D6"/>
</linearGradient>
<linearGradient id="paint6_linear_711_4949" x1="14.0212" y1="157.58" x2="75.7631" y2="32.7126" gradientUnits="userSpaceOnUse">
<stop offset="0.0135063" stop-color="white"/>
<stop offset="1" stop-color="#01D1D6"/>
</linearGradient>
<linearGradient id="paint7_linear_711_4949" x1="41.4667" y1="67.4358" x2="49.0771" y2="43.5533" gradientUnits="userSpaceOnUse">
<stop offset="0.0135063" stop-color="white"/>
<stop offset="1" stop-color="#01D1D6"/>
</linearGradient>
<linearGradient id="paint8_linear_711_4949" x1="38.1392" y1="48.3328" x2="41.8528" y2="31.3477" gradientUnits="userSpaceOnUse">
<stop offset="0.0135063" stop-color="white"/>
<stop offset="1" stop-color="#01D1D6"/>
</linearGradient>
<linearGradient id="paint9_linear_711_4949" x1="113.143" y1="28.2201" x2="115.614" y2="14.0626" gradientUnits="userSpaceOnUse">
<stop offset="0.0135063" stop-color="white"/>
<stop offset="1" stop-color="#01D1D6"/>
</linearGradient>
<clipPath id="clip0_711_4949">
<rect width="109" height="109" fill="white" transform="translate(47)"/>
</clipPath>
</defs>
</svg>
