<?xml version="1.0" standalone="no"?>
<!DOCTYPE svg PUBLIC "-//W3C//DTD SVG 20010904//EN"
 "http://www.w3.org/TR/2001/REC-SVG-20010904/DTD/svg10.dtd">
<svg version="1.0" xmlns="http://www.w3.org/2000/svg"
 width="700.000000pt" height="700.000000pt" viewBox="0 0 700.000000 700.000000"
 preserveAspectRatio="xMidYMid meet">
<metadata>
Created by potrace 1.14, written by Peter Selinger 2001-2017
</metadata>
<g transform="translate(0.000000,700.000000) scale(0.100000,-0.100000)"
fill="#000000" stroke="none">
<path d="M3283 6993 c-32 -4 -46 -19 -20 -21 13 0 30 -4 112 -23 134 -31 294
-139 390 -264 101 -131 143 -341 104 -520 -35 -161 -139 -401 -243 -560 -75
-115 -186 -269 -195 -273 -10 -3 -183 255 -228 338 -57 108 -125 327 -125 407
0 56 34 125 80 163 50 41 158 74 222 67 123 -13 187 -81 277 -297 11 -25 11
-24 32 21 124 275 4 566 -294 714 -173 85 -312 103 -495 61 -14 -3 -63 -24
-109 -47 -158 -78 -283 -232 -336 -414 -23 -76 -27 -111 -29 -225 -1 -123 5
-213 19 -280 3 -14 7 -36 10 -49 51 -259 232 -613 483 -950 l70 -94 -47 -61
c-25 -33 -50 -66 -56 -72 -5 -6 -23 -29 -40 -50 -81 -105 -297 -370 -333 -409
-10 -11 -43 -49 -73 -85 -68 -82 -255 -291 -339 -380 -8 -9 -67 -72 -130 -140
-63 -68 -146 -158 -185 -199 -38 -42 -106 -114 -150 -160 -44 -47 -89 -95
-100 -107 -254 -278 -372 -356 -540 -356 -105 -1 -157 15 -372 114 -259 118
-341 147 -414 145 -56 -2 -63 -5 -94 -39 -54 -59 -82 -198 -61 -298 13 -61
108 -228 247 -435 209 -312 268 -452 274 -654 3 -99 -11 -162 -79 -366 -171
-508 -201 -648 -172 -787 10 -46 72 -113 112 -121 132 -25 261 49 432 248 85
98 236 246 286 279 113 74 223 82 346 23 46 -22 144 -84 223 -140 44 -31 139
-86 212 -122 113 -56 143 -67 201 -71 61 -5 73 -3 103 17 53 37 74 87 78 188
2 63 -2 108 -16 162 -26 103 -52 155 -143 291 -84 126 -163 269 -199 358 -28
71 -68 213 -75 265 -3 22 -7 51 -10 64 -3 13 -5 72 -5 131 1 116 25 263 61
370 34 99 130 286 182 355 56 73 323 414 357 455 25 31 60 73 76 95 17 21 42
52 56 69 14 17 56 69 94 116 129 158 347 425 374 456 14 17 88 108 165 203 76
94 142 171 146 171 3 0 25 -23 49 -52 65 -81 388 -452 472 -543 82 -88 100
-109 288 -314 26 -30 184 -200 221 -240 27 -29 209 -226 255 -276 15 -16 64
-70 109 -118 189 -205 289 -394 332 -622 18 -100 24 -254 12 -330 -4 -27 -10
-64 -13 -82 -7 -48 -79 -272 -249 -783 -85 -256 -161 -498 -169 -538 -34 -163
12 -278 141 -350 34 -19 134 -22 186 -7 123 37 182 91 311 285 71 108 342 478
365 500 3 3 50 61 105 129 54 68 108 132 119 143 33 30 96 56 181 73 183 38
257 25 495 -87 122 -58 133 -61 204 -60 66 0 99 18 130 72 29 49 54 151 53
212 -2 52 -9 66 -131 259 -71 112 -158 251 -193 309 -63 103 -204 380 -218
430 -4 14 -11 30 -15 35 -12 16 -78 223 -94 295 -26 115 -28 133 -31 270 -7
260 32 394 235 815 75 155 250 579 250 605 0 5 5 18 10 28 17 27 127 354 156
459 27 101 28 152 1 214 -44 103 -173 146 -282 94 -66 -31 -157 -133 -229
-255 -36 -61 -66 -113 -66 -116 0 -2 -15 -27 -33 -56 -19 -29 -37 -60 -40 -68
-4 -8 -17 -31 -28 -50 -12 -19 -66 -116 -121 -215 -182 -327 -230 -395 -346
-491 -136 -112 -289 -164 -469 -159 -61 1 -115 5 -120 8 -5 3 -21 8 -35 11
-49 8 -180 69 -251 115 -95 62 -321 252 -473 396 -340 323 -442 422 -588 574
l-50 51 20 27 c201 272 415 666 492 903 75 233 51 488 -68 703 -134 242 -390
435 -670 503 -62 15 -258 25 -327 17z"/>
<path d="M5252 6120 c-108 -38 -208 -136 -270 -264 -34 -69 -50 -91 -83 -112
-67 -42 -95 -146 -39 -150 165 -10 251 -16 280 -19 19 -2 76 -7 125 -10 50 -3
113 -7 140 -10 91 -9 159 -14 245 -21 47 -3 101 -8 120 -9 19 -2 75 -7 123
-11 l89 -7 -3 44 c-3 56 -21 92 -59 119 -19 14 -33 36 -41 63 -27 103 -92 249
-125 283 -73 73 -130 37 -193 -120 -19 -47 -36 -85 -38 -83 -1 2 -5 39 -9 83
-9 122 -27 167 -88 215 -35 28 -110 31 -174 9z"/>
<path d="M5288 5459 c-180 -19 -340 -118 -441 -273 -157 -240 -124 -529 83
-736 162 -163 376 -216 584 -146 108 37 159 68 242 152 56 55 81 90 112 155
50 106 63 162 63 264 -1 195 -105 380 -277 493 -99 66 -248 103 -366 91z"/>
<path d="M643 5049 c-45 -16 -57 -52 -57 -176 -1 -128 2 -128 -70 -13 -94 150
-208 169 -326 52 -90 -90 -126 -175 -137 -327 -4 -67 -12 -102 -31 -138 -19
-38 -24 -58 -20 -98 3 -27 8 -53 12 -56 7 -7 285 84 801 262 149 52 278 97
287 100 16 6 16 10 -2 46 -27 51 -55 76 -95 83 -24 5 -46 21 -77 58 -61 74
-149 162 -179 182 -38 24 -81 34 -106 25z"/>
<path d="M777 4384 c-1 -1 -27 -4 -57 -8 -231 -25 -428 -199 -484 -427 -88
-359 212 -721 584 -702 302 15 534 261 533 563 -1 47 -3 96 -6 110 -3 14 -8
34 -10 45 -16 67 -75 175 -129 235 -59 65 -161 131 -250 159 -32 11 -175 30
-181 25z"/>
<path d="M2750 2375 l0 -300 278 0 277 0 0 300 0 300 -277 0 -278 1 0 -301z"/>
<path d="M3630 2373 l0 -303 278 0 279 0 1 300 c0 221 -3 300 -11 301 -7 1
-132 2 -279 3 l-268 1 0 -302z"/>
<path d="M3634 1821 c-2 -2 -4 -139 -4 -303 l0 -298 278 2 277 3 2 298 c1 163
-2 297 -5 298 -29 3 -545 3 -548 0z"/>
<path d="M2745 1810 c-1 -3 -3 -136 -3 -296 l0 -292 282 2 281 1 2 293 c1 215
-2 292 -10 294 -34 4 -549 3 -552 -2z"/>
</g>
</svg>
